<!DOCTYPE svg PUBLIC "-//W3C//DTD SVG 1.1//EN" "http://www.w3.org/Graphics/SVG/1.1/DTD/svg11.dtd">
<!-- Uploaded to: SVG Repo, www.svgrepo.com, Transformed by: SVG Repo Mixer Tools -->
<svg fill="#ffffff" height="256px" width="256px" version="1.1" id="Layer_1" xmlns="http://www.w3.org/2000/svg" xmlns:xlink="http://www.w3.org/1999/xlink" viewBox="0 0 318.53 318.53" xml:space="preserve" stroke="#ffffff" stroke-width="0.0031853199999999997" transform="matrix(1, 0, 0, 1, 0, 0)">
<g id="SVGRepo_bgCarrier" stroke-width="0"/>
<g id="SVGRepo_tracerCarrier" stroke-linecap="round" stroke-linejoin="round" stroke="#CCCCCC" stroke-width="0.637064"/>
<g id="SVGRepo_iconCarrier"> <g> <g> <g> <path d="M249.162,215.761c11.99-12.737,21.071-27.829,26.759-44.161c22.091-0.334,39.962-18.396,39.962-40.564 c0-19.316-13.569-35.512-31.673-39.585C267.096,37.366,216.406,0,159.266,0C102.15,0,51.441,37.373,34.327,91.449 c-18.106,4.07-31.678,20.269-31.678,39.586c0,16.513,9.92,30.743,24.109,37.072c3.952,13.824,14.644,24.828,28.286,29.203 c4.163,6.557,8.955,12.74,14.33,18.45c-31.303,22.406-53.519,56.082-61.519,93.713c-0.471,2.213,0.083,4.521,1.507,6.279 c1.424,1.758,3.566,2.78,5.829,2.78h288.157c2.263,0,4.405-1.021,5.829-2.78c1.424-1.759,1.978-4.066,1.507-6.279 C302.681,271.841,280.464,238.166,249.162,215.761z M280.235,105.936c11.752,2.307,20.647,12.682,20.647,25.1 c0,12.429-8.913,22.811-20.682,25.104c1.709-8.201,2.6-16.609,2.6-25.104C282.801,122.438,281.915,114.043,280.235,105.936z M35.732,131.035c0,1.485,0.036,2.967,0.089,4.446c-0.979-0.468-2.07-0.737-3.227-0.737c-4.142,0-7.5,3.357-7.5,7.5v6.813 c-4.6-4.627-7.447-10.998-7.447-18.021c0-12.419,8.896-22.795,20.649-25.1C36.618,114.043,35.732,122.438,35.732,131.035z M24.778,303.534v-0.001c9.414-33.01,31.049-61.927,60.391-80.311c1.988-1.245,3.279-3.35,3.488-5.687 c0.209-2.336-0.687-4.637-2.422-6.216c-4.081-3.714-7.841-7.717-11.272-11.957h15.464c2.294,3.212,6.043,5.313,10.291,5.313 c6.985,0,12.649-5.662,12.649-12.648c0-6.984-5.664-12.646-12.649-12.646c-4.1,0-7.733,1.959-10.044,4.982H68.169 c-1.195,0-2.37-0.084-3.525-0.229c-9.013-16.075-13.912-34.354-13.912-53.099C50.732,71.188,99.42,22.5,159.266,22.5 c59.847,0,108.535,48.688,108.535,108.535c0,30.487-12.94,59.751-35.501,80.285c-1.735,1.579-2.631,3.88-2.422,6.216 c0.209,2.337,1.5,4.441,3.488,5.687c29.342,18.383,50.977,47.3,60.393,80.311H24.778z"/> <circle cx="85.605" cy="106.92" r="13.644"/> <path d="M223.391,123.535H95.143c-4.142,0-7.5,3.357-7.5,7.5c0,39.493,32.13,71.623,71.623,71.623 c39.494,0,71.625-32.13,71.625-71.623C230.891,126.893,227.533,123.535,223.391,123.535z M159.266,187.658 c-28.68,0-52.448-21.433-56.128-49.123h112.258C211.715,166.226,187.947,187.658,159.266,187.658z"/> <circle cx="232.93" cy="106.921" r="13.645"/> </g> </g> </g> </g>
</svg>